<?xml version="1.0" encoding="UTF-8" standalone="no"?>
<svg
   xmlns:dc="http://purl.org/dc/elements/1.1/"
   xmlns:cc="http://creativecommons.org/ns#"
   xmlns:rdf="http://www.w3.org/1999/02/22-rdf-syntax-ns#"
   xmlns:svg="http://www.w3.org/2000/svg"
   xmlns="http://www.w3.org/2000/svg"
   xmlns:sodipodi="http://sodipodi.sourceforge.net/DTD/sodipodi-0.dtd"
   xmlns:inkscape="http://www.inkscape.org/namespaces/inkscape"
   version="1.1"
   id="Layer_1"
   x="0px"
   y="0px"
   width="100px"
   height="100px"
   viewBox="0 0 100 100"
   enable-background="new 0 0 100 100"
   xml:space="preserve"
   inkscape:version="0.48.4 r9939"
   sodipodi:docname="noun_project_4222.svg"><metadata
     id="metadata5107"><rdf:RDF><cc:Work
         rdf:about=""><dc:format>image/svg+xml</dc:format><dc:type
           rdf:resource="http://purl.org/dc/dcmitype/StillImage" /><dc:title></dc:title></cc:Work></rdf:RDF></metadata><defs
     id="defs5105" /><sodipodi:namedview
     pagecolor="#ffffff"
     bordercolor="#666666"
     borderopacity="1"
     objecttolerance="10"
     gridtolerance="10"
     guidetolerance="10"
     inkscape:pageopacity="0"
     inkscape:pageshadow="2"
     inkscape:window-width="640"
     inkscape:window-height="480"
     id="namedview5103"
     showgrid="false"
     inkscape:zoom="2.36"
     inkscape:cx="50"
     inkscape:cy="50"
     inkscape:window-x="10"
     inkscape:window-y="24"
     inkscape:window-maximized="0"
     inkscape:current-layer="Layer_1" /><polygon
     points="17.702,71.042 9.297,62.644 37.37,62.644 37.37,90.703 28.965,82.305 11.27,100 0,88.737 "
     id="polygon5093"
     style="fill:#999999" /><polygon
     points="88.743,100 100,88.737 82.305,71.042 90.703,62.644 62.649,62.644 62.644,90.703 71.042,82.305 "
     id="polygon5095"
     style="fill:#999999" /><polygon
     points="100,11.263 88.743,0 71.042,17.708 62.644,9.31 62.644,37.357 90.71,37.37 82.298,28.958 "
     id="polygon5097"
     style="fill:#999999" /><polygon
     points="9.303,37.37 37.357,37.37 37.376,9.297 28.971,17.708 11.27,0 0,11.276 17.702,28.958 "
     id="polygon5099"
     style="fill:#999999" /><path
     d="M50,37.787c-6.745,0-12.213,5.469-12.213,12.213c0,6.758,5.469,12.227,12.213,12.227c6.745,0,12.22-5.469,12.22-12.227  C62.22,43.255,56.745,37.787,50,37.787z"
     id="path5101"
     style="fill:#999999" /></svg>