<?xml version="1.0" encoding="UTF-8" standalone="no"?>
<!-- Created with Inkscape (http://www.inkscape.org/) -->

<svg
   xmlns:dc="http://purl.org/dc/elements/1.1/"
   xmlns:cc="http://creativecommons.org/ns#"
   xmlns:rdf="http://www.w3.org/1999/02/22-rdf-syntax-ns#"
   xmlns:svg="http://www.w3.org/2000/svg"
   xmlns="http://www.w3.org/2000/svg"
   xmlns:xlink="http://www.w3.org/1999/xlink"
   xmlns:sodipodi="http://sodipodi.sourceforge.net/DTD/sodipodi-0.dtd"
   xmlns:inkscape="http://www.inkscape.org/namespaces/inkscape"
   version="1.2"
   width="200"
   height="200"
   id="svg2455"
   inkscape:version="0.48.4 r9939"
   sodipodi:docname="logo.svg"
   inkscape:export-filename="/home/ybon/Code/qml/OSMTouch/icons/OSMTouch64.png"
   inkscape:export-xdpi="90"
   inkscape:export-ydpi="90">
  <sodipodi:namedview
     pagecolor="#ffffff"
     bordercolor="#666666"
     borderopacity="1"
     objecttolerance="10"
     gridtolerance="10"
     guidetolerance="10"
     inkscape:pageopacity="1"
     inkscape:pageshadow="2"
     inkscape:window-width="1366"
     inkscape:window-height="744"
     id="namedview4422"
     showgrid="true"
     inkscape:zoom="2.8284272"
     inkscape:cx="63.499204"
     inkscape:cy="95.370803"
     inkscape:window-x="0"
     inkscape:window-y="24"
     inkscape:window-maximized="1"
     inkscape:current-layer="svg2455">
    <inkscape:grid
       type="xygrid"
       id="grid3289"
       empspacing="5"
       visible="true"
       enabled="true"
       snapvisiblegridlinesonly="true" />
  </sodipodi:namedview>
  <defs
     id="defs3">
    <marker
       inkscape:stockid="DotS"
       orient="auto"
       refY="0"
       refX="0"
       id="DotS"
       style="overflow:visible">
      <path
         id="path4217"
         d="m -2.5,-1 c 0,2.76 -2.24,5 -5,5 -2.76,0 -5,-2.24 -5,-5 0,-2.76 2.24,-5 5,-5 2.76,0 5,2.24 5,5 z"
         style="fill-rule:evenodd;stroke:#000000;stroke-width:1pt"
         transform="matrix(0.2,0,0,0.2,1.48,0.2)"
         inkscape:connector-curvature="0" />
    </marker>
    <inkscape:perspective
       sodipodi:type="inkscape:persp3d"
       inkscape:vp_x="0 : 24 : 1"
       inkscape:vp_y="0 : 1000 : 0"
       inkscape:vp_z="48 : 24 : 1"
       inkscape:persp3d-origin="24 : 16 : 1"
       id="perspective4424" />
    <linearGradient
       id="linearGradient2419">
      <stop
         id="stop2420"
         style="stop-color:#000000;stop-opacity:0.50515461"
         offset="0" />
      <stop
         id="stop2421"
         style="stop-color:#000000;stop-opacity:0"
         offset="1" />
    </linearGradient>
    <linearGradient
       x1="156.33752"
       y1="184.92068"
       x2="264.56921"
       y2="184.92068"
       id="linearGradient2422"
       xlink:href="#linearGradient2419"
       gradientUnits="userSpaceOnUse"
       gradientTransform="scale(1.19593,0.836169)" />
    <linearGradient
       id="linearGradient2411">
      <stop
         id="stop2412"
         style="stop-color:#ffffff;stop-opacity:1"
         offset="0" />
      <stop
         id="stop2413"
         style="stop-color:#ffffff;stop-opacity:0"
         offset="1" />
    </linearGradient>
    <radialGradient
       cx="212.59842"
       cy="70.866119"
       r="35.433071"
       fx="212.59842"
       fy="70.866119"
       id="radialGradient2415"
       xlink:href="#linearGradient2411"
       gradientUnits="userSpaceOnUse" />
    <linearGradient
       x1="414.13153"
       y1="240.14357"
       x2="302.99097"
       y2="240.80186"
       id="linearGradient1779"
       xlink:href="#linearGradient1767"
       gradientUnits="userSpaceOnUse"
       gradientTransform="scale(0.689104,1.45116)" />
    <linearGradient
       id="linearGradient1767">
      <stop
         id="stop1768"
         style="stop-color:#3f3318;stop-opacity:1"
         offset="0" />
      <stop
         id="stop1769"
         style="stop-color:#815f0e;stop-opacity:1"
         offset="1" />
    </linearGradient>
    <linearGradient
       x1="299.37338"
       y1="252.27031"
       x2="411.72696"
       y2="252.27031"
       id="linearGradient1778"
       xlink:href="#linearGradient1767"
       gradientUnits="userSpaceOnUse"
       gradientTransform="matrix(0.697599,0,0,1.47183,0,-11.82638)" />
    <linearGradient
       id="linearGradient1754">
      <stop
         id="stop1755"
         style="stop-color:#747474;stop-opacity:1"
         offset="0" />
      <stop
         id="stop1757"
         style="stop-color:#bebebe;stop-opacity:1"
         offset="0.5" />
      <stop
         id="stop1759"
         style="stop-color:#d5d5d5;stop-opacity:1"
         offset="0.625" />
      <stop
         id="stop1758"
         style="stop-color:#818181;stop-opacity:1"
         offset="0.75" />
      <stop
         id="stop1756"
         style="stop-color:#c3c3c3;stop-opacity:1"
         offset="1" />
    </linearGradient>
    <linearGradient
       x1="150.49463"
       y1="42.808048"
       x2="345.53265"
       y2="242.17987"
       id="linearGradient1777"
       xlink:href="#linearGradient1754"
       gradientUnits="userSpaceOnUse"
       gradientTransform="scale(1.000071,0.999929)" />
    <pattern
       patternUnits="userSpaceOnUse"
       width="28.945312"
       height="33.076172"
       patternTransform="translate(190.4901,70.84341)"
       id="pattern2568">
      <text
         xml:space="preserve"
         style="font-size:12.000000;font-style:normal;font-weight:normal;fill:#000000;fill-opacity:1.0000000;stroke:none;stroke-width:1.0000000pt;stroke-linecap:butt;stroke-linejoin:miter;stroke-opacity:1.0000000;font-family:Bitstream Vera Sans"
         x="189.69904"
         y="67.749657"
         id="text2569"
         transform="translate(-190.4901,-70.84341)"><tspan
           id="tspan2570"
           x="189.69904"
           y="67.749657" /><tspan
           id="tspan2576"
           x="189.69904"
           y="79.749657">0010</tspan><tspan
           id="tspan2578"
           x="189.69904"
           y="91.749657">0100</tspan><tspan
           id="tspan2580"
           x="189.69904"
           y="103.74966">0111</tspan><tspan
           id="tspan2582"
           x="189.69904"
           y="115.74966" /></text>
    </pattern>
    <pattern
       patternUnits="userSpaceOnUse"
       width="32.232422"
       height="37.876175"
       patternTransform="translate(183.7668,59.46841)"
       id="pattern2606">
      <text
         xml:space="preserve"
         style="font-size:12.000000;font-style:normal;font-weight:bold;fill:#000000;fill-opacity:1.0000000;stroke:none;stroke-width:1.0000000pt;stroke-linecap:butt;stroke-linejoin:miter;stroke-opacity:1.0000000;font-family:Bitstream Vera Sans;font-stretch:normal;font-variant:normal;text-anchor:middle;writing-mode:lr;"
         x="189.69904"
         y="67.749657"
         id="text2607"
         transform="translate(-173.5858,-58.84341)"><tspan
           x="189.69904"
           y="67.749657"
           id="tspan2608">0010</tspan><tspan
           x="189.69904"
           y="82.149657"
           id="tspan2610">0100</tspan><tspan
           x="189.69904"
           y="96.549658"
           id="tspan2612">0111</tspan></text>
    </pattern>
    <pattern
       patternUnits="userSpaceOnUse"
       width="32.232422"
       height="28.276169"
       patternTransform="translate(183.7668,59.46841)"
       id="pattern2623">
      <text
         xml:space="preserve"
         style="font-size:12.000000;font-style:normal;font-variant:normal;font-weight:bold;font-stretch:normal;fill:#000000;fill-opacity:1.0000000;stroke:none;stroke-width:1.0000000pt;stroke-linecap:butt;stroke-linejoin:miter;stroke-opacity:1.0000000;font-family:Bitstream Vera Sans;text-anchor:middle;writing-mode:lr;"
         x="189.69904"
         y="67.749657"
         id="text2624"
         transform="translate(-173.5858,-58.84341)"><tspan
           x="189.69904"
           y="67.749657"
           id="tspan2625">0010</tspan><tspan
           x="189.69904"
           y="77.349657"
           id="tspan2627">0100</tspan><tspan
           x="189.69904"
           y="86.949657"
           id="tspan2629">0111</tspan></text>
    </pattern>
    <pattern
       patternUnits="userSpaceOnUse"
       width="32.232422"
       height="25.876175"
       patternTransform="translate(183.7668,59.46841)"
       id="pattern2639">
      <text
         xml:space="preserve"
         style="font-size:12.000000;font-style:normal;font-variant:normal;font-weight:bold;font-stretch:normal;fill:#000000;fill-opacity:1.0000000;stroke:none;stroke-width:1.0000000pt;stroke-linecap:butt;stroke-linejoin:miter;stroke-opacity:1.0000000;font-family:Bitstream Vera Sans;text-anchor:middle;writing-mode:lr;"
         x="189.69904"
         y="67.749657"
         id="text2640"
         transform="translate(-173.5858,-58.84341)"><tspan
           x="189.69904"
           y="67.749657"
           id="tspan2641">0010</tspan><tspan
           x="189.69904"
           y="76.149656"
           id="tspan2643">0100</tspan><tspan
           x="189.69904"
           y="84.549656"
           id="tspan2645">0111</tspan></text>
    </pattern>
    <pattern
       patternUnits="userSpaceOnUse"
       width="96.697266"
       height="77.628510"
       patternTransform="translate(151.5402,41.65591)"
       id="pattern2692">
      <text
         xml:space="preserve"
         style="font-size:36.000000;font-style:normal;font-variant:normal;font-weight:bold;font-stretch:normal;fill:#000000;fill-opacity:1.0000000;stroke:none;stroke-width:1.0000000pt;stroke-linecap:butt;stroke-linejoin:miter;stroke-opacity:1.0000000;font-family:Bitstream Vera Sans;text-anchor:middle;writing-mode:lr;"
         x="189.69904"
         y="67.749657"
         id="text2693"
         transform="translate(-141.3592,-41.03091)"><tspan
           x="189.69904"
           y="67.749657"
           id="tspan2694">0010</tspan><tspan
           x="189.69904"
           y="92.949656"
           id="tspan2696">0100</tspan><tspan
           x="189.69904"
           y="118.14965"
           id="tspan2698">0111</tspan></text>
    </pattern>
    <linearGradient
       x1="150.49463"
       y1="42.808048"
       x2="345.53265"
       y2="242.17987"
       id="linearGradient3789"
       xlink:href="#linearGradient1754"
       gradientUnits="userSpaceOnUse"
       gradientTransform="scale(1.000071,0.999929)" />
    <linearGradient
       x1="299.37338"
       y1="252.27031"
       x2="411.72696"
       y2="252.27031"
       id="linearGradient3791"
       xlink:href="#linearGradient1767"
       gradientUnits="userSpaceOnUse"
       gradientTransform="matrix(0.697599,0,0,1.47183,0,-11.82638)" />
    <linearGradient
       x1="414.13153"
       y1="240.14357"
       x2="302.99097"
       y2="240.80186"
       id="linearGradient3793"
       xlink:href="#linearGradient1767"
       gradientUnits="userSpaceOnUse"
       gradientTransform="scale(0.689104,1.45116)" />
    <radialGradient
       cx="212.59842"
       cy="70.866119"
       r="35.433071"
       fx="212.59842"
       fy="70.866119"
       id="radialGradient3795"
       xlink:href="#linearGradient2411"
       gradientUnits="userSpaceOnUse" />
    <linearGradient
       x1="156.33752"
       y1="184.92068"
       x2="264.56921"
       y2="184.92068"
       id="linearGradient3797"
       xlink:href="#linearGradient2419"
       gradientUnits="userSpaceOnUse"
       gradientTransform="scale(1.19593,0.836169)" />
  </defs>
  <metadata
     id="metadata4">
    <rdf:RDF>
      <cc:Work
         rdf:about="">
        <dc:format>image/svg+xml</dc:format>
        <dc:type
           rdf:resource="http://purl.org/dc/dcmitype/StillImage" />
        <dc:title></dc:title>
      </cc:Work>
    </rdf:RDF>
  </metadata>
  <rect
     style="opacity:1;fill:#ffffff;fill-opacity:1;fill-rule:nonzero;stroke:none;stroke-width:2;stroke-linecap:butt;stroke-linejoin:round;stroke-miterlimit:4;stroke-opacity:1;stroke-dasharray:none"
     id="rect3291"
     width="200"
     height="200"
     x="0"
     y="0"
     rx="0.9889605"
     ry="0.99359262"
     inkscape:export-xdpi="28.799999"
     inkscape:export-ydpi="28.799999"
     inkscape:export-filename="/home/ybon/Work/osmtouch64.png" />
  <g
     id="g4200"
     inkscape:export-filename="/home/ybon/Work/osmtouch64.png"
     inkscape:export-xdpi="28.799999"
     inkscape:export-ydpi="28.799999">
    <path
       id="path4189"
       d="M 128.96875 25.03125 C 116.4464 25.02855 103.92273 29.677098 94.375 38.96875 C 77.24854 55.63759 76.65542 83.22095 90.25 101.8125 L 77.03125 114.25 C 77.17872 114.36709 86.03125 122.8125 86.03125 122.8125 L 98.53125 110.5625 C 119.94574 125.5438 146.43603 122.98132 163.5625 106.3125 C 182.65794 87.72731 182.65776 57.55394 163.5625 38.96875 C 154.01478 29.676157 141.4911 25.03396 128.96875 25.03125 z M 128.96875 32.96875 C 139.40362 32.97145 149.82482 36.848967 157.78125 44.59375 C 173.69411 60.08136 173.72558 85.23108 157.8125 100.71875 C 141.89963 116.20641 116.03786 116.20636 100.125 100.71875 C 84.212108 85.23108 84.212108 60.08141 100.125 44.59375 C 108.08143 36.849947 118.53388 32.966045 128.96875 32.96875 z "
       style="fill:#333333;fill-opacity:1;stroke:none" />
    <path
       id="path4169"
       d="m 63.879368,116.05569 -39.21875,37.9375 c -3.223956,3.12021 -3.215175,8.18323 0,11.3125 l 8.96875,8.71875 c 3.215174,3.12926 8.369796,3.12021 11.59375,0 l 39.21875,-37.9375 c 3.22396,-3.12021 3.21518,-8.18324 0,-11.3125 l -8.96875,-8.71875 c -3.48388,-3.074 -8.57545,-2.83371 -11.59375,0 z"
       style="fill:#333333;fill-opacity:1;stroke:none" />
  </g>
  <path
     id="path5801"
     style="fill:#75a355;fill-opacity:1;stroke:none"
     d="m 81.566868,142.80569 c -11.21001,10.88665 -12.56279,12.14334 -23.00888,22.47947 l 32.13388,-7.44822 c 0.96846,-4.27616 2.10145,-9.57257 2.40847,-10.81564 -5.07276,-0.17061 -7.96517,-1.75353 -11.53347,-4.21561 z m 34.718762,-12.40625 c -1.19096,13.91697 -7.36454,14.95432 -19.062512,16.78125 -0.83343,3.66376 -1.39686,6.21084 -2.375,10.53125 l 30.000012,7.3125 c 4.02473,-16.87665 7.25817,-30.5491 7.1875,-30.625 -0.10553,-0.11333 -8.03022,-2.104 -15.75,-4 z m -14.40625,-3.40625 c -0.0392,0.0332 -1.71549,7.32994 -3.875012,16.8125 13.702662,-2.16443 14.117062,-6.51917 14.531262,-14.3125 -5.62266,-1.36874 -10.59536,-2.55162 -10.65625,-2.5 z m -4.031262,-0.21875 c -3.33284,0.2825 -5.00185,0.61864 -8.65625,1.625 1.17457,2.19516 1.72139,6.70686 -4.90284,11.97752 3.4697,2.11456 6.50153,2.93475 9.55909,3.30368 2.80286,-12.80648 4.23925,-14.80227 4,-16.90625 z m -65.625,-0.15625 -5.8125,22.6875 19.75,-19.21875 c -4.432394,-1.10695 -8.480187,-2.11601 -13.9375,-3.46875 z m 137.562512,-0.78125 c -18.3868,4.68703 -33.38412,8.56037 -33.4375,8.625 -0.0471,0.0571 -3.3648,13.82307 -7.4375,30.8125 l 32.78125,-8 z m -53.5,-4.75 0,5.09375 c 6.77707,1.68181 13.72712,3.35915 15.15625,3.375 0,0 -0.75877,-3.04378 -1.65625,-6.8125 -0.0208,1.1e-4 -0.0417,-8e-5 -0.0625,0 -5.85104,0.14721 -7.88932,-0.1938 -13.4375,-1.65625 z m -16.656256,-7.59375 -0.0625,0.0625 2.406256,9.28125 c 0.56552,-0.0553 5.26955,1.12461 10.5625,2.4375 5.8e-4,-2.0787 0.004,-3.77979 0.0312,-5.28125 -4.53761,-1.5311 -8.89773,-3.70178 -12.937506,-6.5 z m -70.250006,-3 3.21875,12.03125 c 0,0 8.921049,2.15551 17.09375,4.125 l 0.9375,-0.90625 c -12.121592,-4.29863 -12.289796,-13.29507 -21.25,-15.25 z m 136.750012,-2.6875 c -12.11668,10.06485 -18.59976,12.6294 -32.21875,14.78125 0.83233,3.34261 1.56109,6.20981 1.78125,6.875 0.18592,0.56173 11.4542,-2.00931 34.03125,-7.71875 z m -78.625012,-6.125 c -1.49723,-2.04757 -2.82448,-4.17752 -3.96875,-6.375 -8.82017,1.91942 -23.35758,5.35162 -23.78125,5.71875 -0.17895,0.15508 1.11417,5.88497 2.90625,13 4.38321,-4.04127 9.41839,-3.31293 12.7572,-1.07138 m 12.43344,11.93436 c 3.06372,-1.02409 7.28102,-1.82355 9.96561,-2.14423 -0.33637,-2.41517 -0.5689,-3.93738 -1.53125,-6.4375 m -71.34375,-23.65625 3.21875,12.71875 c 16.238288,6.15774 17.448096,18.48579 26.15625,16.78125 l 5.59375,-5.4375 c -1.73551,-7.19093 -3.76189,-14.76189 -4.25,-15.25 -0.11269,-0.11268 -30.71875,-8.8125 -30.71875,-8.8125 z m 53.59375,-27.4375 -10.875,2.6875 c -2.28764,9.58984 -5.36825,21.58386 -7.21875,28.6875 8.91846,-2.46865 11.34029,-2.98682 21.375,-5 -3.52236,-8.39829 -4.62957,-17.52265 -3.28125,-26.375 z m -45.9375,-6.875 -7.6875,30.0625 c 11.839042,3.35289 18.71481,5.25843 30.6875,8.0625 2.52798,-7.80799 5.37871,-16.43377 7.4375,-28.8125 -7.9843,-2.48428 -12.77091,-4.01265 -30.4375,-9.3125 z m 57.625,-34.03125 -29.90625,7.28125 c 4.21879,18.31703 7.30843,31.39477 7.5,31.59375 0.18333,0.1904 5.52094,-0.95081 11.59375,-2.34375 2.85672,-11.3066 5.34133,-15.22473 13.8125,-23.8125 -0.90914,-3.899667 -1.91738,-8.168741 -3,-12.71875 z m 4,-0.40625 c 1.23481,5.171746 1.34873,5.544559 2.4375,10.09375 3.442262,-2.767841 7.186562,-5.018526 11.093762,-6.78125 z m -69.90625,0 7.8125,30.0625 c 17.156912,5.05308 30.85055,9.0267 30.9375,8.9375 0.0921,-0.0945 -3.02296,-14.09728 -6.9375,-31.5 z m 137.375012,-0.28125 -12.09375,2.9375 c 5.56709,2.302679 10.79263,5.610559 15.40625,9.90625 z M 95.087438,79.76921 c 2.68353,16.38769 20.645592,28.70686 39.375022,26.66592 6.98619,-16.50638 11.87713,-15.70636 14.57199,-32.24004 0.10814,-14.6979 -19.21853,-5.63154 -28.00305,-5.16484 -15.08876,-0.48108 -14.33794,-18.2437 -15.97508,-20.87152 -4.65859,3.4244 -12.789652,14.12923 -9.968882,31.61048 z M 112.31688,42.49319 c 4.91759,15.53157 5.97285,20.83982 21.65625,14.75 11.79713,-3.41976 21.20077,1.23316 22.72802,6.8144 2.50216,8.32234 -1.56912,20.51701 -12.47802,39.4981 C 161.31031,94.42803 166.7154,74.46855 160.5776,59.15036 152.21608,41.675723 132.74815,32.982674 112.31688,42.49319 z"
     inkscape:export-filename="/home/ybon/Work/osmtouch64.png"
     inkscape:export-xdpi="28.799999"
     inkscape:export-ydpi="28.799999" />
  <g
     style="stroke:none;display:block"
     id="layer4"
     transform="matrix(0.08798405,0,0,0.08595212,3.1986333,150.92568)"
     inkscape:export-filename="/home/ybon/Work/osmtouch64.png"
     inkscape:export-xdpi="28.799999"
     inkscape:export-ydpi="28.799999" />
</svg>
