<?xml version="1.0" encoding="UTF-8" standalone="no"?>
<svg
   xmlns:dc="http://purl.org/dc/elements/1.1/"
   xmlns:cc="http://creativecommons.org/ns#"
   xmlns:rdf="http://www.w3.org/1999/02/22-rdf-syntax-ns#"
   xmlns:svg="http://www.w3.org/2000/svg"
   xmlns="http://www.w3.org/2000/svg"
   xmlns:sodipodi="http://sodipodi.sourceforge.net/DTD/sodipodi-0.dtd"
   xmlns:inkscape="http://www.inkscape.org/namespaces/inkscape"
   version="1.1"
   id="Layer_1"
   x="0px"
   y="0px"
   width="100px"
   height="100px"
   viewBox="0 0 100 100"
   enable-background="new 0 0 100 100"
   xml:space="preserve"
   inkscape:version="0.48.5 r10040"
   sodipodi:docname="navigate.svg"><metadata
     id="metadata5107"><rdf:RDF><cc:Work
         rdf:about=""><dc:format>image/svg+xml</dc:format><dc:type
           rdf:resource="http://purl.org/dc/dcmitype/StillImage" /><dc:title></dc:title></cc:Work></rdf:RDF></metadata><defs
     id="defs5105" /><sodipodi:namedview
     pagecolor="#ffffff"
     bordercolor="#666666"
     borderopacity="1"
     objecttolerance="10"
     gridtolerance="10"
     guidetolerance="10"
     inkscape:pageopacity="0"
     inkscape:pageshadow="2"
     inkscape:window-width="1920"
     inkscape:window-height="1056"
     id="namedview5103"
     showgrid="true"
     inkscape:zoom="4.72"
     inkscape:cx="21.791208"
     inkscape:cy="9.0662729"
     inkscape:window-x="0"
     inkscape:window-y="24"
     inkscape:window-maximized="1"
     inkscape:current-layer="Layer_1"><inkscape:grid
       type="xygrid"
       id="grid3202" /></sodipodi:namedview><rect
     style="color:#000000;fill:none;stroke:none;stroke-width:4;marker:none;visibility:visible;display:inline;overflow:visible;enable-background:accumulate"
     id="rect4782"
     width="51.796154"
     height="51.81665"
     x="1.8903447"
     y="-55"
     transform="matrix(0,1,-1,0,0,0)" /><path
     inkscape:connector-curvature="0"
     style="color:#000000;fill:#808080;fill-opacity:1;fill-rule:nonzero;stroke:none;stroke-width:3;marker:none;visibility:visible;display:inline;overflow:visible;enable-background:accumulate"
     d="m 20,44.264345 c -7.631349,0 -13.817774,6.18382 -13.817774,13.81215 0,1.514658 0.255499,2.967876 0.706182,4.331548 0.04583,0.138682 0.08262,0.281616 0.13269,0.418311 0.351963,1.164154 5.510408,18.082631 12.993521,33.254633 0.0023,0 0.0055,-0.0012 0.0079,-0.0035 0.0029,-0.0017 0.0052,-0.0046 0.0079,-0.0079 0.0029,-0.0029 0.0062,-0.0059 0.009,-0.0079 0.0029,-0.0023 0.0056,-0.0035 0.0079,-0.0035 C 28.042491,79.48785 33.125085,62.407849 33.125085,62.407849 l -0.0045,0 c 0.450132,-1.362879 0.697187,-2.817807 0.697187,-4.331504 0,-7.62833 -6.186423,-13.81215 -13.817772,-13.81215 z m 0,6.888645 A 6.9264017,6.9236623 0 0 1 26.926878,58.076495 6.9264017,6.9236623 0 0 1 20,65 6.9264017,6.9236623 0 0 1 13.073122,58.076495 6.9264017,6.9236623 0 0 1 20,51.15299 z"
     id="path4789" /><path
     id="path3373"
     d="m 80,4.2643446 c -7.631349,0 -13.817774,6.1838204 -13.817774,13.8121504 0,1.514658 0.255499,2.967876 0.706182,4.331548 0.04583,0.138682 0.08262,0.281616 0.13269,0.418311 0.351963,1.164154 5.510408,18.082631 12.993521,33.254633 0.0023,0 0.0055,-0.0012 0.0079,-0.0035 0.0029,-0.0017 0.0052,-0.0046 0.0079,-0.0079 0.0029,-0.0029 0.0062,-0.0059 0.009,-0.0079 0.0029,-0.0023 0.0056,-0.0035 0.0079,-0.0035 C 88.042491,39.48785 93.125085,22.407849 93.125085,22.407849 l -0.0045,0 C 93.570717,21.04497 93.817772,19.590042 93.817772,18.076345 93.817772,10.448015 87.631349,4.2641949 80,4.2641949 z M 80,11.15299 A 6.9264017,6.9236623 0 0 1 86.926878,18.076495 6.9264017,6.9236623 0 0 1 80,25 6.9264017,6.9236623 0 0 1 73.073122,18.076495 6.9264017,6.9236623 0 0 1 80,11.15299 z"
     style="color:#000000;fill:#808080;fill-opacity:1;fill-rule:nonzero;stroke:none;stroke-width:3;marker:none;visibility:visible;display:inline;overflow:visible;enable-background:accumulate"
     inkscape:connector-curvature="0" /><path
     style="fill:none;stroke:#808080;stroke-width:2.14375;stroke-linecap:butt;stroke-linejoin:miter;stroke-opacity:1;stroke-miterlimit:4;stroke-dasharray:none"
     d="M 40,60 C 94.166669,9.4444444 10.833333,75.555556 65,25"
     id="path3377"
     inkscape:connector-curvature="0" /><text
     xml:space="preserve"
     style="font-size:8px;font-style:normal;font-variant:normal;font-weight:normal;font-stretch:normal;line-height:125%;letter-spacing:0px;word-spacing:0px;fill:#000000;fill-opacity:1;stroke:#808080;font-family:Ubuntu;-inkscape-font-specification:Ubuntu"
     x="17"
     y="60"
     id="text4147"
     sodipodi:linespacing="125%"><tspan
       sodipodi:role="line"
       id="tspan4149"
       x="17"
       y="60">A</tspan></text>
<text
     xml:space="preserve"
     style="font-size:8px;font-style:normal;font-variant:normal;font-weight:normal;font-stretch:normal;line-height:125%;letter-spacing:0px;word-spacing:0px;fill:#000000;fill-opacity:1;stroke:#808080;font-family:Ubuntu;-inkscape-font-specification:Ubuntu"
     x="78"
     y="20"
     id="text4151"
     sodipodi:linespacing="125%"><tspan
       sodipodi:role="line"
       id="tspan4153"
       x="78"
       y="20">B</tspan></text>
</svg>