<?xml version="1.0" encoding="UTF-8" standalone="no"?>
<svg
   xmlns:dc="http://purl.org/dc/elements/1.1/"
   xmlns:cc="http://creativecommons.org/ns#"
   xmlns:rdf="http://www.w3.org/1999/02/22-rdf-syntax-ns#"
   xmlns:svg="http://www.w3.org/2000/svg"
   xmlns="http://www.w3.org/2000/svg"
   xmlns:sodipodi="http://sodipodi.sourceforge.net/DTD/sodipodi-0.dtd"
   xmlns:inkscape="http://www.inkscape.org/namespaces/inkscape"
   version="1.1"
   id="Layer_1"
   x="0px"
   y="0px"
   width="100px"
   height="100px"
   viewBox="0 0 100 100"
   enable-background="new 0 0 100 100"
   xml:space="preserve"
   inkscape:version="0.48.4 r9939"
   sodipodi:docname="nearby.svg"><metadata
     id="metadata5107"><rdf:RDF><cc:Work
         rdf:about=""><dc:format>image/svg+xml</dc:format><dc:type
           rdf:resource="http://purl.org/dc/dcmitype/StillImage" /><dc:title></dc:title></cc:Work></rdf:RDF></metadata><defs
     id="defs5105" /><sodipodi:namedview
     pagecolor="#ffffff"
     bordercolor="#666666"
     borderopacity="1"
     objecttolerance="10"
     gridtolerance="10"
     guidetolerance="10"
     inkscape:pageopacity="0"
     inkscape:pageshadow="2"
     inkscape:window-width="1366"
     inkscape:window-height="744"
     id="namedview5103"
     showgrid="true"
     inkscape:zoom="3.337544"
     inkscape:cx="97.285323"
     inkscape:cy="33.110815"
     inkscape:window-x="0"
     inkscape:window-y="24"
     inkscape:window-maximized="1"
     inkscape:current-layer="Layer_1"><inkscape:grid
       type="xygrid"
       id="grid3202" /></sodipodi:namedview><rect
     style="color:#000000;fill:none;stroke:none;stroke-width:4;marker:none;visibility:visible;display:inline;overflow:visible;enable-background:accumulate"
     id="rect4782"
     width="89.964401"
     height="90"
     x="5.000082"
     y="-89.007568"
     transform="matrix(0,1,-1,0,0,0)" /><g
     id="g4053"
     transform="translate(-0.89886456,0)"><path
       sodipodi:nodetypes="scccscscccccccccccs"
       inkscape:connector-curvature="0"
       id="path4789-0"
       d="m 65.63257,0.8125 c -8.244171,0 -15.522885,4.1705651 -19.84375,10.5 3.87937,1.330052 7.30537,3.619306 10,6.59375 2.206522,-3.147937 5.998482,-5.122164 9.84375,-5.125 3.150627,-2.17e-4 6.281916,1.296529 8.509305,3.523917 2.227388,2.227389 3.523408,5.357953 3.521945,8.507333 0.0015,3.14938 -1.294557,6.279944 -3.521945,8.507333 -2.227389,2.227388 -5.358678,3.524134 -8.509305,3.523917 -1.270894,0.0017 -2.541854,-0.199496 -3.75,-0.59375 -0.172451,1.818695 -0.539375,3.571472 -1.09375,5.25 0,0 -2.652148,8.876742 -7.25,21.46875 3.405352,8.765933 7.506682,18.480112 12.125,27.84375 0.005,-0.003 0.02658,0.0057 0.03125,0 0.005,-0.005 -0.0049,-0.02775 0,-0.03125 0.005,-0.004 0.02728,0 0.03125,0 13.886924,-28.780863 22.71875,-58.4375 22.71875,-58.4375 l -0.03125,0 c 0.78182,-2.367175 1.21875,-4.90212 1.21875,-7.53125 2e-4,-13.249597 -10.745155,-24 -24,-24 z"
       style="color:#000000;fill:#808080;fill-opacity:1;fill-rule:nonzero;stroke:none;stroke-width:3;marker:none;visibility:visible;display:inline;overflow:visible;enable-background:accumulate" /><path
       id="path4789"
       d="m 36.723082,10.317491 c -13.25484,0 -24.000001,10.740637 -24.000001,23.990234 0,2.630799 0.443773,5.154885 1.226562,7.523438 0.0796,0.240875 0.143499,0.489136 0.230469,0.726562 0.611321,2.02201 9.570991,31.407603 22.568361,57.759755 0.004,0 0.0095,-0.002 0.01367,-0.006 0.005,-0.003 0.009,-0.008 0.01367,-0.0137 0.005,-0.005 0.01073,-0.0102 0.01563,-0.0137 0.005,-0.004 0.0097,-0.006 0.01367,-0.006 13.88692,-28.781112 22.714843,-58.447255 22.714843,-58.447255 l -0.0078,0 c 0.781817,-2.367175 1.210925,-4.89423 1.210925,-7.52336 0,-13.249597 -10.745159,-23.990234 -23.999999,-23.990234 z m 0,11.964844 a 12.030422,12.025664 0 0 1 12.03125,12.02539 12.030422,12.025664 0 0 1 -12.03125,12.025391 12.030422,12.025664 0 0 1 -12.03125,-12.025391 12.030422,12.025664 0 0 1 12.03125,-12.02539 z"
       style="color:#000000;fill:#808080;fill-opacity:1;fill-rule:nonzero;stroke:none;stroke-width:3;marker:none;visibility:visible;display:inline;overflow:visible;enable-background:accumulate"
       inkscape:connector-curvature="0" /></g></svg>